<?xml version="1.0" encoding="UTF-8" standalone="no"?>
<svg
   xmlns:dc="http://purl.org/dc/elements/1.1/"
   xmlns:cc="http://creativecommons.org/ns#"
   xmlns:rdf="http://www.w3.org/1999/02/22-rdf-syntax-ns#"
   xmlns:svg="http://www.w3.org/2000/svg"
   xmlns="http://www.w3.org/2000/svg"
   xmlns:sodipodi="http://sodipodi.sourceforge.net/DTD/sodipodi-0.dtd"
   xmlns:inkscape="http://www.inkscape.org/namespaces/inkscape"
   inkscape:version="1.0 (4035a4fb49, 2020-05-01)"
   sodipodi:docname="eyev2.svg"
   id="svg8"
   version="1.1"
   viewBox="0 0 52.916665 44.979168"
   height="170"
   width="200">
  <defs
     id="defs2">
    <marker
       inkscape:isstock="true"
       style="overflow:visible"
       id="Arrow1Lstart"
       refX="0.0"
       refY="0.0"
       orient="auto"
       inkscape:stockid="Arrow1Lstart">
      <path
         transform="scale(0.8) translate(12.5,0)"
         style="fill-rule:evenodd;stroke:#000000;stroke-width:1pt;stroke-opacity:1;fill:#000000;fill-opacity:1"
         d="M 0.0,0.0 L 5.0,-5.0 L -12.5,0.0 L 5.0,5.0 L 0.0,0.0 z "
         id="path1063" />
    </marker>
  </defs>
  <sodipodi:namedview
     inkscape:window-maximized="1"
     inkscape:window-y="-8"
     inkscape:window-x="-8"
     inkscape:window-height="1377"
     inkscape:window-width="2560"
     units="px"
     showgrid="false"
     inkscape:document-rotation="0"
     inkscape:current-layer="svg8"
     inkscape:document-units="mm"
     inkscape:cy="117.79178"
     inkscape:cx="16.283565"
     inkscape:zoom="3.959798"
     inkscape:pageshadow="2"
     inkscape:pageopacity="0.0"
     borderopacity="1.0"
     bordercolor="#666666"
     pagecolor="#ffffff"
     id="base" />
  <metadata
     id="metadata5">
    <rdf:RDF>
      <cc:Work
         rdf:about="">
        <dc:format>image/svg+xml</dc:format>
        <dc:type
           rdf:resource="http://purl.org/dc/dcmitype/StillImage" />
        <dc:title></dc:title>
      </cc:Work>
    </rdf:RDF>
  </metadata>
  <g
     inkscape:label="Layer 1"
     id="layer11"
     inkscape:groupmode="layer" />
  <g
     id="g1595">
    <path
       style="fill:#ffffff;fill-opacity:1;stroke:#000000;stroke-width:0.055951px;stroke-linecap:butt;stroke-linejoin:miter;stroke-opacity:1"
       d="m 4.8698039,19.428238 14.2879321,-5.93885 12.26927,0.799302 7.03385,2.677658 9.11203,6.034723 3.75119,3.158832 -2.871958,-0.641033 -2.557764,0.519545 -15.426509,5.754967 -8.672417,0.15986 -10.590738,-4.196329 -6.7141289,-7.27364 z"
       id="path1482" />
    <ellipse
       style="fill:#000000;fill-opacity:1;stroke-width:0.579761"
       id="path910"
       cx="26.79476"
       cy="20.564495"
       rx="9.2691345"
       ry="8.8169823" />
    <ellipse
       ry="8.2543049"
       rx="8.4216213"
       cy="20.486073"
       cx="26.83161"
       id="path910-2"
       style="fill:#00a5ce;fill-opacity:0.995984;stroke-width:0.534696" />
    <ellipse
       ry="5.8335881"
       rx="5.7540221"
       cy="14.984652"
       cx="29.517527"
       id="path910-1"
       style="fill:#000000;fill-opacity:0.799197;stroke-width:0.371553"
       transform="matrix(0.98458357,0.17491479,-0.15342092,0.98816093,0,0)" />
    <path
       id="path908"
       style="fill:#000000;fill-opacity:1;stroke:#000000;stroke-width:0.055951px;stroke-linecap:butt;stroke-linejoin:miter;stroke-opacity:1"
       d="m 22.943004,10.672164 c -2.259344,-0.0095 -5.053522,0.308838 -7.847685,1.47101 -6.386661,2.656399 -12.773346,8.251802 -12.773346,8.251802 0,0 7.4605693,8.477796 12.716848,10.455965 5.256278,1.978169 5.538794,2.317336 8.195194,2.430374 2.656398,0.113039 9.947413,-0.847773 12.716847,-2.31727 2.769438,-1.469497 8.873541,-4.634651 10.456075,-4.917247 1.582536,-0.282595 3.50416,-0.339048 4.917139,0.113105 0,0 -6.330162,-6.556231 -11.077765,-9.382187 -4.747607,-2.825955 -12.377646,-5.538828 -12.377646,-5.538828 0,0 -2.020792,-0.554428 -4.925661,-0.566724 z m 0.663544,3.891223 c 0.604102,-0.0039 1.180049,0.03485 1.718746,0.123158 6.895336,1.130382 10.738565,2.373768 10.738565,2.373768 0,0 14.073268,8.195238 14.525422,8.647391 0.452152,0.452153 -1.073891,-0.169492 -1.073891,-0.169492 0,0 -1.752038,-0.452133 -3.278055,-0.05649 -1.526017,0.395633 -8.986562,3.786732 -12.208151,4.691038 -3.221589,0.904305 -5.764928,1.130387 -5.764928,1.130387 0,0 -5.991049,1.186848 -12.208152,-2.430375 -6.217104,-3.617226 -10.6255681,-8.3083 -10.6255681,-8.3083 0,0 11.0476191,-5.956049 18.1760121,-6.001081 z" />
    <path
       id="path910-1-4"
       style="fill:#000000;fill-opacity:0.799197;stroke-width:0.37151"
       d="m 30.289969,15.468154 a 5.8680727,5.718849 70.557293 0 1 0.769493,3.973729 5.8680727,5.718849 70.557293 0 1 -6.560232,4.758116 5.8680727,5.718849 70.557293 0 1 -2.586269,-1.172044 5.8680727,5.718849 70.557293 0 0 4.000729,2.797146 5.8680727,5.718849 70.557293 0 0 6.560229,-4.758 5.8680727,5.718849 70.557293 0 0 -2.18395,-5.598947 z" />
    <ellipse
       style="fill:#ffffff;fill-opacity:0.350806;stroke-width:0.55951"
       id="path1004"
       cx="24.782814"
       cy="18.205263"
       rx="1.8883487"
       ry="2.0981653" />
    <path
       id="path1006"
       style="fill:#ffffff;fill-opacity:0.71371;stroke-width:0.55951"
       d="m 24.978271,16.866435 a 1.1689777,1.1589864 0 0 0 -1.044931,0.648355 1.1589864,1.1090301 0 0 0 -0.57929,0.960239 1.1589864,1.1090301 0 0 0 1.159018,1.109077 1.1589864,1.1090301 0 0 0 0.979035,-0.51558 1.1689777,1.1589864 0 0 0 0.659501,-1.043073 1.1689777,1.1589864 0 0 0 -1.168962,-1.159018 1.1689777,1.1589864 0 0 0 -0.0044,0 z" />
    <path
       style="fill:#000000;fill-opacity:1;stroke-width:0.0660834;stroke-linecap:round;stroke-linejoin:round;stroke-miterlimit:4;stroke-dasharray:none"
       id="path1433"
       d="m 20.323989,25.06152 c 0.01785,-0.01218 0.03659,-0.02291 0.05413,-0.03553 0,0 -0.06931,0.02731 -0.06931,0.02731 v 0 c -0.01788,0.0122 -0.03648,0.02327 -0.05439,0.03545 0,0 0.06957,-0.02722 0.06957,-0.02722 z" />
    <path
       style="fill:none;stroke:#000000;stroke-width:0.211469;stroke-linecap:butt;stroke-linejoin:miter;stroke-miterlimit:4;stroke-dasharray:none;stroke-opacity:1"
       d="M 20.076932,25.618782 21.435743,24.65962"
       id="path1437" />
    <path
       style="fill:none;stroke:#000000;stroke-width:0.211469;stroke-linecap:butt;stroke-linejoin:miter;stroke-miterlimit:4;stroke-dasharray:none;stroke-opacity:1"
       d="m 18.498311,22.461543 1.698515,-0.319721"
       id="path1439" />
    <path
       style="fill:none;stroke:#000000;stroke-width:0.055951px;stroke-linecap:butt;stroke-linejoin:miter;stroke-opacity:1"
       d="m 18.218556,18.964601 c 0.07992,0.01999 1.598603,0.339703 1.598603,0.339703"
       id="path1441" />
    <path
       style="fill:none;stroke:#000000;stroke-width:0.055951px;stroke-linecap:butt;stroke-linejoin:miter;stroke-opacity:1"
       d="m 19.377543,16.386855 1.318847,0.659424"
       id="path1443" />
    <path
       style="fill:none;stroke:#000000;stroke-width:0.211469;stroke-linecap:butt;stroke-linejoin:miter;stroke-miterlimit:4;stroke-dasharray:none;stroke-opacity:1"
       d="m 22.035219,27.657 0.839267,-1.65855"
       id="path1445" />
    <path
       style="fill:none;stroke:#000000;stroke-width:0.211469;stroke-linecap:butt;stroke-linejoin:miter;stroke-miterlimit:4;stroke-dasharray:none;stroke-opacity:1"
       d="m 26.371428,28.955864 c 0.03996,-0.07992 -0.05995,-2.198078 -0.05995,-2.198078"
       id="path1447" />
    <path
       style="fill:none;stroke:#000000;stroke-width:0.211469;stroke-linecap:butt;stroke-linejoin:miter;stroke-miterlimit:4;stroke-dasharray:none;stroke-opacity:1"
       d="m 30.228055,28.356388 c -0.09991,-0.179842 -0.839266,-1.958287 -0.839266,-1.958287"
       id="path1449" />
    <path
       style="fill:none;stroke:#000000;stroke-width:0.211469;stroke-linecap:butt;stroke-linejoin:miter;stroke-miterlimit:4;stroke-dasharray:none;stroke-opacity:1"
       d="m 32.765835,26.597926 -1.198951,-1.33883"
       id="path1451" />
  </g>
</svg>
