<?xml version="1.0" encoding="UTF-8" standalone="no"?>
<svg
   xmlns:dc="http://purl.org/dc/elements/1.1/"
   xmlns:cc="http://creativecommons.org/ns#"
   xmlns:rdf="http://www.w3.org/1999/02/22-rdf-syntax-ns#"
   xmlns:svg="http://www.w3.org/2000/svg"
   xmlns="http://www.w3.org/2000/svg"
   xmlns:sodipodi="http://sodipodi.sourceforge.net/DTD/sodipodi-0.dtd"
   xmlns:inkscape="http://www.inkscape.org/namespaces/inkscape"
   inkscape:version="1.0 (4035a4fb49, 2020-05-01)"
   sodipodi:docname="paige.svg"
   id="svg8"
   version="1.1"
   viewBox="0 0 52.916665 44.979168"
   height="170"
   width="200">
  <defs
     id="defs2" />
  <sodipodi:namedview
     inkscape:window-maximized="1"
     inkscape:window-y="-8"
     inkscape:window-x="-8"
     inkscape:window-height="1377"
     inkscape:window-width="2560"
     units="px"
     showgrid="false"
     inkscape:document-rotation="0"
     inkscape:current-layer="layer3"
     inkscape:document-units="mm"
     inkscape:cy="112.50993"
     inkscape:cx="6.3220571"
     inkscape:zoom="1.979899"
     inkscape:pageshadow="2"
     inkscape:pageopacity="0.0"
     borderopacity="1.0"
     bordercolor="#666666"
     pagecolor="#ffffff"
     id="base" />
  <metadata
     id="metadata5">
    <rdf:RDF>
      <cc:Work
         rdf:about="">
        <dc:format>image/svg+xml</dc:format>
        <dc:type
           rdf:resource="http://purl.org/dc/dcmitype/StillImage" />
        <dc:title></dc:title>
      </cc:Work>
    </rdf:RDF>
  </metadata>
  <g
     style="display:inline"
     id="layer1"
     inkscape:groupmode="layer"
     inkscape:label="Layer 1" />
  <g
     style="display:inline"
     inkscape:label="Layer 4"
     id="layer4"
     inkscape:groupmode="layer">
    <path
       id="path868"
       d="m 27.870378,6.1492868 c 0,0 1.351308,1.2950078 1.407614,1.8580488 0.05631,0.563041 0.563045,1.632829 0.563045,1.632829 0,0 0.450436,1.0697884 0.337827,1.2950094 -0.112609,0.22521 0.281523,1.182388 0.281523,1.182388 l 1.970658,0.450441 1.801745,2.477397 -0.788264,1.407619 -0.450436,0.619346 0.450436,2.083271 -0.337826,0.619346 0.619349,0.450442 -0.563045,0.506736 0.50674,2.815227 -0.563044,0.731957 -2.421096,1.97066 -1.85805,0.394126 -6.306107,-1.97065 c 0,0 -3.7161,-2.871532 -3.7161,-3.096753 0,-0.225221 -0.112608,-11.8802564 -0.112608,-11.8802564 0,0 4.954799,-5.2363188 5.180017,-5.2926238 0.225218,-0.05628 2.139572,0.11261 2.139572,0.11261 z"
       style="fill:#c9b491;fill-opacity:1;stroke:none;stroke-width:0.111477px;stroke-linecap:butt;stroke-linejoin:miter;stroke-opacity:1" />
  </g>
  <g
     style="display:inline"
     inkscape:label="Layer 7"
     id="layer7"
     inkscape:groupmode="layer">
    <path
       sodipodi:nodetypes="cscscsccccscc"
       id="path879"
       d="m 30.868594,12.497627 c 0,0 0.01408,-0.64751 0.225219,-0.717886 0.211141,-0.07041 0.661577,0.01413 0.661577,0.01413 0,0 0.08446,0.225221 0.225219,0.323749 0.14076,0.09855 2.153647,1.252786 2.153647,1.252786 0,0 3.307892,3.06859 3.603491,3.392339 0.295599,0.32375 0.492665,2.40702 0.492665,2.40702 v 0.886802 l -0.07038,0.929025 0.36598,0.760109 c 0,0 0.703807,3.448656 0.661578,3.61756 -0.04222,0.168916 -0.661578,1.069788 -0.661578,1.069788 0,0 -5.616377,-1.562442 -5.517844,-1.85805 l -2.153649,0.197069 -0.02815,-3.673866 c 0,0 -0.154838,-5.531926 -0.126685,-6.010509 0.02815,-0.478595 0.168914,-2.590007 0.168914,-2.590007 z"
       style="fill:#000000;fill-opacity:1;stroke:none;stroke-width:0.111477px;stroke-linecap:butt;stroke-linejoin:miter;stroke-opacity:1" />
  </g>
  <g
     style="display:inline"
     inkscape:label="Layer 6"
     id="layer6"
     inkscape:groupmode="layer">
    <path
       id="path874"
       d="m 27.574779,13.074739 c 0,0 1.323157,-0.197057 1.576527,-0.07041 0.25337,0.126681 0.563045,0.267444 0.563045,0.267444"
       style="fill:none;stroke:#000000;stroke-width:0.111653;stroke-linecap:round;stroke-linejoin:round;stroke-miterlimit:4;stroke-dasharray:none;stroke-opacity:1" />
    <path
       id="path876"
       d="m 26.758363,11.54045 c 0.07038,0 0.422284,0.01413 0.633426,-0.197068 0.211142,-0.211151 1.055711,-0.943107 1.168319,-0.943107 0.112609,0 0.858644,0.337831 0.98533,0.168915 0.126685,-0.168915 0.211141,-0.5911934 0.126685,-0.6193464 -0.08446,-0.02814 -0.267447,-0.126692 -0.61935,-0.07041 -0.351903,0.05628 -0.872721,0.11261 -2.29441,1.6609934 z"
       style="fill:#000000;fill-opacity:1;stroke:none;stroke-width:0.111477px;stroke-linecap:butt;stroke-linejoin:miter;stroke-opacity:1" />
  </g>
  <g
     style="display:inline"
     inkscape:label="Layer 3"
     id="layer3"
     inkscape:groupmode="layer">
    <path
       id="path865"
       d="m 5.0670412,8.7955976 c 0,0 0.2252187,-2.9278378 1.4076138,-4.3354458 1.1823951,-1.407619 3.772403,-3.153059 6.306108,-3.153059 2.533705,0 7.20698,0.225221 7.882634,0.112611 0.675655,-0.112611 2.758923,0.450442 3.040445,0.619346 0.281523,0.168916 0.900873,0.337831 1.351309,0.281526 0.450437,-0.05628 1.126091,-0.675651 1.576528,0.112611 0.450436,0.788262 1.351308,1.85805 1.351308,1.85805 l -0.112609,1.85805 -1.85805,-1.63283 c 0,0 -1.407613,0.450431 -1.914354,2.4773968 -0.50674,2.026965 -0.619351,5.3489294 -0.731959,5.6867604 -0.112609,0.33782 -0.50674,2.026965 -1.576527,2.421091 -1.069786,0.394136 -2.758922,1.520218 -2.927836,3.096753 -0.168913,1.576524 0.225219,3.997626 1.295005,3.885005 1.069785,-0.1126 5.180016,0.225221 5.517844,0.394136 0.337827,0.168916 3.096749,2.533702 3.096749,3.265669 0,0.731957 0.05631,0.900862 0.05631,0.900862 0,0 -1.182395,-0.112611 -2.36479,0.11261 -1.182394,0.225221 -3.885013,0.563052 -4.448057,0.394137 -0.563046,-0.168916 -6.981763,-3.659795 -6.981763,-3.659795 z"
       style="mix-blend-mode:normal;fill:#82511d;fill-opacity:0.995984;stroke:none;stroke-width:0.111477px;stroke-linecap:butt;stroke-linejoin:miter;stroke-opacity:1" />
  </g>
  <g
     inkscape:label="Layer 8"
     id="layer8"
     inkscape:groupmode="layer">
    <path
       id="path882"
       d="m 30.820548,19.94986 0.07963,1.23421 c 0,0 -0.35832,0.13935 -0.537479,0.2986 -0.17916,0.159261 -0.975426,1.37356 -2.329079,2.01057 -1.353653,0.637021 -4.339652,2.548061 -4.976665,2.548061 -0.637013,0 -2.44852,-0.07964 -2.44852,-0.07964 l -0.318506,-0.65692 c 0,0 1.333748,0.21898 1.97076,0 0.637013,-0.21897 4.916943,-2.010571 5.096105,-2.169831 0.17916,-0.15925 1.950852,-1.313829 2.110105,-1.49299 0.159253,-0.179171 0.65692,-0.81618 0.65692,-0.81618 z"
       style="fill:#ffffff;fill-opacity:1;stroke:none;stroke-width:0.111477px;stroke-linecap:butt;stroke-linejoin:miter;stroke-opacity:1" />
  </g>
  <g
     style="display:inline"
     inkscape:label="Layer 5"
     id="layer5"
     inkscape:groupmode="layer">
    <path
       sodipodi:nodetypes="cccccssccccc"
       id="path871"
       d="m 21.001225,27.207182 c 0.281523,0 4.110229,-0.563041 5.968279,-0.563052 h 1.85805 l 2.758923,-2.646301 18.01745,3.659783 c 0,0 0.542558,0.132716 0.978203,0.441791 0,0 1.934941,1.853116 1.913192,2.8865 -0.03457,1.642642 -0.05535,2.403459 -0.05535,2.403459 l 0.128026,8.915276 -20.024341,0.217374 -9.290248,-10.191122 z"
       style="fill:#96d1ff;fill-opacity:1;stroke:none;stroke-width:0.111477px;stroke-linecap:butt;stroke-linejoin:miter;stroke-opacity:1" />
  </g>
  <g
     style="display:inline"
     inkscape:label="Layer 2"
     id="layer2"
     inkscape:groupmode="layer">
    <path
       id="path862"
       d="m 1.5198559,8.0636416 c 0,0 5.6304539,-0.281526 8.333071,2.5900064 2.7026171,2.871533 7.7700251,9.965901 8.2204611,10.472648 0.450437,0.506736 2.702618,4.842182 2.984142,4.954793 0.281522,0.11261 1.689135,2.08327 2.195876,2.927838 0.506741,0.844567 4.504363,5.348928 5.067408,5.517844 0.563046,0.168905 6.925457,6.812842 7.432199,7.938936 0.50674,1.126093 -35.30294283,0.394136 -35.30294283,0.394136 z"
       style="fill:#c3eceb;fill-opacity:1;stroke:none;stroke-width:0.111477px;stroke-linecap:butt;stroke-linejoin:miter;stroke-opacity:1" />
  </g>
  <g
     inkscape:label="Layer 9"
     id="layer9"
     inkscape:groupmode="layer">
    <path
       sodipodi:nodetypes="csscssc"
       id="path885"
       d="m 1.1981838,28.373654 c 0.1970661,-0.197057 2.2641788,-1.222777 4.628969,-1.588761 2.3647901,-0.365973 4.3917532,-0.422278 4.8703412,-0.450431 0.478589,-0.02814 5.827522,0.619346 5.827522,0.619346 0,0 6.334259,0.703804 6.869152,0.647499 0.534892,-0.05628 3.293816,0.253374 5.433386,-0.957177 2.139573,-1.21054 4.84219,-3.096743 4.84219,-3.096743"
       style="fill:none;stroke:#002c61;stroke-width:1;stroke-linecap:round;stroke-linejoin:round;stroke-miterlimit:4;stroke-dasharray:none;stroke-opacity:1" />
  </g>
</svg>
